<svg width="54" height="54" viewBox="0 0 54 54" fill="none" xmlns="http://www.w3.org/2000/svg">
<path fill-rule="evenodd" clip-rule="evenodd" d="M27 2.25C13.3313 2.25 2.25 13.3313 2.25 27C2.25 40.6688 13.3313 51.75 27 51.75C40.6688 51.75 51.75 40.6688 51.75 27C51.75 13.3313 40.6688 2.25 27 2.25ZM29.25 36C29.25 36.5967 29.0129 37.169 28.591 37.591C28.169 38.0129 27.5967 38.25 27 38.25C26.4033 38.25 25.831 38.0129 25.409 37.591C24.9871 37.169 24.75 36.5967 24.75 36V29.25H18C17.4033 29.25 16.831 29.0129 16.409 28.591C15.9871 28.169 15.75 27.5967 15.75 27C15.75 26.4033 15.9871 25.831 16.409 25.409C16.831 24.9871 17.4033 24.75 18 24.75H24.75V18C24.75 17.4033 24.9871 16.831 25.409 16.409C25.831 15.9871 26.4033 15.75 27 15.75C27.5967 15.75 28.169 15.9871 28.591 16.409C29.0129 16.831 29.25 17.4033 29.25 18V24.75H36C36.5967 24.75 37.169 24.9871 37.591 25.409C38.0129 25.831 38.25 26.4033 38.25 27C38.25 27.5967 38.0129 28.169 37.591 28.591C37.169 29.0129 36.5967 29.25 36 29.25H29.25V36Z" fill="#FFE6A6" fill-opacity="0.9"/>
<path d="M20.3999 24.6H29.9999L33.5999 24V14.4H20.3999V24.6Z" fill="#E9D39C"/>
<path d="M21.6001 40.2H31.2001L34.8001 39.6V30H21.6001V40.2Z" fill="#E9D39C"/>
</svg>
